HIERARCHY
ROOT Hips
{
    OFFSET 0.000000 0.000000 0.000000
    CHANNELS 6 Xposition Yposition Zposition Zrotation Xrotation Yrotation
        JOINT Chest
        {
            OFFSET -0.000000 28.502190 -0.000000
            CHANNELS 3 Zrotation Xrotation Yrotation
            JOINT Neck
            {
                OFFSET -0.000000 21.060717 0.000000
                CHANNELS 3 Zrotation Xrotation Yrotation
                JOINT Head
                {
                    OFFSET -0.000000 9.900002 0.000000
                    CHANNELS 3 Zrotation Xrotation Yrotation
                    End Site
                    {
                        OFFSET -0.000000 15.300010 0.000000
                    }
                }
            }
            JOINT LeftCollar
            {
                OFFSET -0.000000 21.060717 0.000000
                CHANNELS 3 Zrotation Xrotation Yrotation
                JOINT LeftShoulder
                {
                    OFFSET 18.000004 -0.000000 0.000000
                    CHANNELS 3 Zrotation Xrotation Yrotation
                    JOINT LeftElbow
                    {
                        OFFSET 21.585543 0.000000 0.000000
                        CHANNELS 3 Zrotation Xrotation Yrotation
                        JOINT LeftWrist
                        {
                            OFFSET 21.310946 0.000000 0.000000
                            CHANNELS 3 Zrotation Xrotation Yrotation
                            End Site
                            {
                                OFFSET 0.000000 -13.500002 0.000000
                            }
                        }
                    }
                }
            }
            JOINT RightCollar
            {
                OFFSET -0.000000 21.060717 0.000000
                CHANNELS 3 Zrotation Xrotation Yrotation
                JOINT RightShoulder
                {
                    OFFSET -18.000004 0.000000 0.000000
                    CHANNELS 3 Zrotation Xrotation Yrotation
                    JOINT RightElbow
                    {
                        OFFSET -21.585543 0.000000 0.000000
                        CHANNELS 3 Zrotation Xrotation Yrotation
                        JOINT RightWrist
                        {
                            OFFSET -21.310946 0.000000 0.000000
                            CHANNELS 3 Zrotation Xrotation Yrotation
                            End Site
                            {
                                OFFSET -0.000000 -13.500002 0.000000
                            }
                        }
                    }
                }
            }
        }
    JOINT LeftHip
    {
        OFFSET 10.800001 0.000000 0.000000
        CHANNELS 3 Zrotation Xrotation Yrotation
        JOINT LeftKnee
        {
            OFFSET -0.000000 -36.918850 0.000000
            CHANNELS 3 Zrotation Xrotation Yrotation
            JOINT LeftAnkle
            {
                OFFSET -0.000000 -34.060452 0.000000
                CHANNELS 3 Zrotation Xrotation Yrotation
                End Site
                {
                    OFFSET -0.000000 -4.500001 15.300010
                }
            }
        }
    }
    JOINT RightHip
    {
        OFFSET -10.800001 0.000000 0.000000
        CHANNELS 3 Zrotation Xrotation Yrotation
        JOINT RightKnee
        {
            OFFSET -0.000000 -36.918850 0.000000
            CHANNELS 3 Zrotation Xrotation Yrotation
            JOINT RightAnkle
            {
                OFFSET -0.000000 -34.060452 0.000000
                CHANNELS 3 Zrotation Xrotation Yrotation
                End Site
                {
                    OFFSET -0.000000 -4.500001 15.300010
                }
            }
        }
    }
}
MOTION
Frames:    14
Frame Time:    0.010000
26.294106    78.497673    -70.768715    6.176133    0.977824    -30.434570    -3.234096    3.319874    -0.768219    5.429949    7.599528    -2.038289    -2.595197    -14.655686    -2.120512    -18.777639    -0.539022    3.428106    -53.724541    29.225866    -4.871651    27.292076    -21.074976    -75.029633    117.016144    16.821102    53.172516    7.587896    -1.081944    -15.914530    39.521633    60.515335    29.229353    -12.744684    -7.722601    62.070339    -109.925026    -27.672503    -9.158090    -11.438912    -2.244576    -0.296206    2.104363    4.272973    6.533853    2.068632    -5.101923    1.420204    -13.603969    -19.845068    6.995590    -2.273173    0.034817    -4.907091    7.071187    9.128825    17.797573    
26.464298    78.469048    -70.837830    6.102465    0.817291    -30.555796    -3.443460    3.364096    -0.806831    5.543567    7.994560    -1.859135    -2.632198    -14.636842    -1.800630    -18.716604    -0.574858    3.707995    -53.800896    29.297029    -4.654196    27.434778    -21.275911    -75.015541    117.231178    17.507732    53.165104    7.720845    -1.073106    -15.262979    40.581104    60.315498    28.118334    -12.691975    -7.624212    62.001995    -108.561325    -28.106285    -8.875051    -11.553098    -2.114958    -0.480404    2.096838    4.160381    6.615898    2.230415    -4.981595    1.649727    -13.664269    -19.710712    6.140284    -2.480921    0.008378    -6.367575    7.139281    9.503740    18.780462    
26.637369    78.443680    -70.886986    6.107263    0.661892    -30.535120    -3.486639    3.561245    -0.910470    5.530420    7.914069    -1.804199    -2.740970    -14.667392    -1.772379    -18.636120    -0.609200    3.839427    -53.877552    29.679380    -4.801932    27.603464    -21.365969    -74.742821    117.083588    17.177181    53.062897    7.688518    -1.035255    -15.349179    39.905613    60.442970    28.772959    -12.648474    -7.602682    62.031181    -109.422935    -27.642563    -9.114886    -11.747643    -2.086696    -0.772617    2.112139    4.154033    6.892386    2.508685    -4.859768    1.581113    -13.896051    -19.666689    4.927920    -2.531953    0.043973    -6.612457    5.467548    9.501408    18.197493    
26.759138    78.432617    -70.937798    6.088499    0.554207    -30.565477    -3.572070    3.651196    -0.955746    5.551217    7.945234    -1.768053    -2.701638    -14.656325    -1.729000    -18.580347    -0.645091    3.881048    -53.939960    29.829996    -4.756250    27.724430    -21.395443    -74.657776    117.160973    17.389051    53.077866    7.716591    -1.013937    -15.291541    39.928459    60.418545    28.738989    -12.603420    -7.602948    62.022438    -109.261169    -27.620647    -9.055548    -11.850130    -2.042957    -0.917605    2.117666    4.126398    6.925875    2.660221    -4.762702    1.682546    -14.004607    -19.612362    4.158711    -2.620011    0.053300    -7.140938    4.835455    9.630534    18.225391    
26.893255    78.421478    -70.995552    6.068145    0.435192    -30.596743    -3.663833    3.751616    -0.998351    5.567624    7.958624    -1.747029    -2.649875    -14.620019    -1.699291    -18.527634    -0.601853    3.896169    -53.968117    29.915667    -4.762606    27.760580    -21.335108    -74.604042    117.301186    17.649008    53.056644    7.728156    -1.037603    -15.269201    39.992512    60.430984    28.670359    -12.671302    -7.656524    61.992897    -108.943764    -27.622187    -8.990577    -11.960437    -1.996408    -1.068554    2.129168    4.103977    6.889967    2.824573    -4.647792    1.838886    -14.125522    -19.549990    3.287656    -2.717253    0.061452    -7.712495    4.119544    9.776921    18.221624    
27.035002    78.409561    -71.057281    6.046196    0.306258    -30.627748    -3.759817    3.858234    -1.032342    5.579955    7.970041    -1.730372    -2.589925    -14.567285    -1.671888    -18.473356    -0.632494    3.908026    -54.008537    30.064192    -4.743951    27.853437    -21.413374    -74.568802    117.386986    17.883928    52.988071    7.747698    -1.007418    -15.251323    39.996681    60.395256    28.637938    -12.582944    -7.576075    62.012390    -108.867897    -27.541792    -8.965136    -12.075382    -1.947007    -1.211815    2.147030    4.089941    6.770862    2.993236    -4.518866    2.048551    -14.255756    -19.477236    2.334575    -2.820402    0.065716    -8.311237    3.349509    9.940569    18.181690    
27.179722    78.396248    -71.119972    6.022808    0.169099    -30.657013    -3.856875    3.969002    -1.054590    5.587528    7.976369    -1.725266    -2.522888    -14.497489    -1.653436    -18.425219    -0.657246    3.911201    -54.035908    30.176102    -4.714864    27.847904    -21.394718    -74.575180    117.562866    18.184053    52.920284    7.741574    -1.034746    -15.251078    40.081814    60.407665    28.548584    -12.685628    -7.664289    61.992126    -108.466942    -27.543137    -8.876090    -12.192039    -1.894910    -1.334155    2.169925    4.085828    6.572207    3.157681    -4.381251    2.296537    -14.392558    -19.392063    1.322475    -2.925799    0.063304    -8.921579    2.564235    10.122081    18.102032    
27.323389    78.381088    -71.180779    5.998919    0.025961    -30.682547    -3.954605    4.077429    -1.066694    5.589295    7.987211    -1.724926    -2.452793    -14.410467    -1.642196    -18.388245    -0.620373    3.915995    -54.020046    30.221004    -4.732944    27.758877    -21.304384    -74.621414    117.758194    18.465712    52.808670    7.733959    -1.032670    -15.255841    40.156750    60.387302    28.445997    -12.663500    -7.623029    62.018593    -108.314545    -27.467684    -8.851928    -12.308607    -1.841061    -1.426748    2.195597    4.091636    6.312687    3.310244    -4.240882    2.559808    -14.534666    -19.293638    0.276764    -3.029193    0.051880    -9.528613    1.803320    10.320452    17.980621    
27.462847    78.363708    -71.237381    5.976238    -0.120133    -30.702354    -4.052995    4.175852    -1.072598    5.583210    8.005142    -1.732540    -2.378608    -14.302316    -1.637731    -18.353857    -0.646059    3.920841    -54.010887    30.312710    -4.723895    27.732111    -21.319246    -74.681282    117.863037    18.669697    52.669323    7.719027    -1.028596    -15.267746    40.267746    60.359921    28.313511    -12.641547    -7.641706    62.051987    -108.101524    -27.419682    -8.775113    -12.424555    -1.786896    -1.488218    2.221646    4.105512    6.021487    3.445611    -4.103366    2.813784    -14.681869    -19.182432    -0.775356    -3.126255    0.028613    -10.121748    1.101715    10.534099    17.819912    
27.595911    78.343796    -71.288147    5.957592    -0.265011    -30.715315    -4.152382    4.256229    -1.075176    5.567969    8.029348    -1.744861    -2.303594    -14.165930    -1.640628    -18.329199    -0.624539    3.927168    -53.976212    30.334532    -4.725051    27.614559    -21.208927    -74.771988    118.033356    18.894464    52.557587    7.686975    -1.060857    -15.284575    40.467583    60.355484    28.095592    -12.712213    -7.689331    62.076797    -107.796227    -27.403231    -8.707153    -12.540456    -1.735253    -1.523970    2.245836    4.124618    5.731010    3.562727    -3.973599    3.037978    -14.834940    -19.061680    -1.806866    -3.212483    -0.008348    -10.692976    0.489226    10.761452    17.623409    
27.721596    78.321060    -71.332619    5.948119    -0.403356    -30.722298    -4.253938    4.309979    -1.073451    5.543496    8.057199    -1.761410    -2.229970    -13.997822    -1.642649    -18.308668    -0.642957    3.939941    -53.948990    30.379679    -4.705332    27.521097    -21.180323    -74.877518    118.135712    19.022238    52.420338    7.666171    -1.026167    -15.297620    40.632156    60.284481    27.891592    -12.598073    -7.579126    62.157280    -107.822815    -27.310572    -8.697396    -12.658614    -1.691170    -1.544252    2.266134    4.145072    5.472565    3.664284    -3.854964    3.218013    -14.995950    -18.939163    -2.792844    -3.284460    -0.058533    -11.236185    -0.013165    11.000691    17.394918    
27.840004    78.295364    -71.371498    5.954263    -0.530252    -30.726530    -4.359423    4.330731    -1.062124    5.512774    8.079877    -1.776286    -2.167719    -13.795710    -1.648592    -18.297575    -0.614148    3.956916    -53.906254    30.355879    -4.700046    27.357519    -21.057156    -75.000534    118.256607    19.104584    52.295639    7.622052    -1.043102    -15.308480    40.903961    60.252689    27.610495    -12.650774    -7.635723    62.195377    -107.591370    -27.312033    -8.620568    -12.782632    -1.660943    -1.559422    2.280865    4.163335    5.269314    3.754909    -3.748935    3.348111    -15.167790    -18.825598    -3.711647    -3.340610    -0.119313    -11.746199    -0.399294    11.247789    17.139938    
27.951691    78.266991    -71.405983    5.981236    -0.643173    -30.732700    -4.470464    4.315938    -1.033683    5.480102    8.091617    -1.791206    -2.124588    -13.569042    -1.655080    -18.287901    -0.653137    3.974612    -53.895866    30.371702    -4.654251    27.249876    -21.048683    -75.122421    118.272659    19.055674    52.161148    7.581796    -1.003075    -15.317542    41.137428    60.162579    27.350826    -12.512280    -7.522035    62.282150    -107.709961    -27.238508    -8.601956    -12.915983    -1.649081    -1.574880    2.289090    4.177229    5.131919    3.839059    -3.656287    3.429754    -15.352337    -18.730434    -4.544258    -3.381895    -0.186793    -12.218247    -0.675862    11.496126    16.866022    
28.056789    78.236565    -71.436707    6.030202    -0.743532    -30.744926    -4.588872    4.267558    -0.983588    5.451171    8.091902    -1.807500    -2.111217    -13.337906    -1.668157    -18.285967    -0.633173    3.980047    -53.881657    30.296173    -4.619295    27.062693    -20.906832    -75.252220    118.304146    18.962320    52.066730    7.515425    -1.013894    -15.337715    41.457829    60.111629    27.038485    -12.494596    -7.573767    62.327946    -107.609161    -27.252455    -8.493314    -13.060211    -1.655080    -1.588245    2.290782    4.186797    5.054435    3.920061    -3.578151    3.471779    -15.549094    -18.656740    -5.273755    -3.410861    -0.257903    -12.648717    -0.853645    11.738069    16.582218    
